<mxfile host="app.diagrams.net" modified="2022-03-30T14:30:51.680Z" agent="5.0 (Windows)" etag="jhBFupcWqp4dEfT2zPoU" version="16.2.4" type="github">
  <diagram name="Page-1" id="bfe91b75-5d2c-26a0-9c1d-138518896778">
    <mxGraphModel dx="1138" dy="602" grid="1" gridSize="10" guides="1" tooltips="1" connect="1" arrows="1" fold="1" page="1" pageScale="1" pageWidth="1100" pageHeight="850" background="none" math="0" shadow="0">
      <root>
        <mxCell id="0" />
        <mxCell id="1" parent="0" />
        <mxCell id="INU719RJ9msbYf8EdK45-4" value="" style="html=1;fillColor=#CCCCCC;strokeColor=#6881B3;gradientColor=none;gradientDirection=north;strokeWidth=2;shape=mxgraph.networks.bus;gradientColor=none;gradientDirection=north;fontColor=#ffffff;perimeter=backbonePerimeter;backboneSize=20;" vertex="1" parent="1">
          <mxGeometry x="140" y="220" width="360" height="20" as="geometry" />
        </mxCell>
        <mxCell id="INU719RJ9msbYf8EdK45-24" style="edgeStyle=orthogonalEdgeStyle;rounded=0;orthogonalLoop=1;jettySize=auto;html=1;shape=link;strokeColor=none;" edge="1" parent="1" source="INU719RJ9msbYf8EdK45-14" target="INU719RJ9msbYf8EdK45-4">
          <mxGeometry relative="1" as="geometry">
            <Array as="points">
              <mxPoint x="380" y="160" />
              <mxPoint x="235" y="160" />
            </Array>
          </mxGeometry>
        </mxCell>
        <mxCell id="INU719RJ9msbYf8EdK45-50" style="edgeStyle=orthogonalEdgeStyle;rounded=0;orthogonalLoop=1;jettySize=auto;html=1;endArrow=none;endFill=0;strokeWidth=3;" edge="1" parent="1" source="INU719RJ9msbYf8EdK45-14" target="INU719RJ9msbYf8EdK45-19">
          <mxGeometry relative="1" as="geometry">
            <Array as="points">
              <mxPoint x="460" y="180" />
              <mxPoint x="560" y="180" />
            </Array>
          </mxGeometry>
        </mxCell>
        <mxCell id="INU719RJ9msbYf8EdK45-52" style="edgeStyle=orthogonalEdgeStyle;rounded=0;orthogonalLoop=1;jettySize=auto;html=1;endArrow=none;endFill=0;strokeWidth=3;" edge="1" parent="1" source="INU719RJ9msbYf8EdK45-14" target="INU719RJ9msbYf8EdK45-4">
          <mxGeometry relative="1" as="geometry">
            <Array as="points">
              <mxPoint x="430" y="180" />
              <mxPoint x="260" y="180" />
            </Array>
          </mxGeometry>
        </mxCell>
        <mxCell id="INU719RJ9msbYf8EdK45-14" value="LR" style="rounded=0;whiteSpace=wrap;html=1;" vertex="1" parent="1">
          <mxGeometry x="410" y="90" width="70" height="40" as="geometry" />
        </mxCell>
        <mxCell id="INU719RJ9msbYf8EdK45-19" value="" style="html=1;outlineConnect=0;fillColor=#CCCCCC;strokeColor=#6881B3;gradientColor=none;gradientDirection=north;strokeWidth=2;shape=mxgraph.networks.bus;gradientColor=none;gradientDirection=north;fontColor=#ffffff;perimeter=backbonePerimeter;backboneSize=20;" vertex="1" parent="1">
          <mxGeometry x="520" y="220" width="180" height="20" as="geometry" />
        </mxCell>
        <mxCell id="INU719RJ9msbYf8EdK45-51" style="rounded=0;orthogonalLoop=1;jettySize=auto;html=1;endArrow=none;endFill=0;strokeWidth=3;" edge="1" parent="1" source="INU719RJ9msbYf8EdK45-26" target="INU719RJ9msbYf8EdK45-19">
          <mxGeometry relative="1" as="geometry" />
        </mxCell>
        <mxCell id="INU719RJ9msbYf8EdK45-26" value="LLR" style="rounded=0;whiteSpace=wrap;html=1;" vertex="1" parent="1">
          <mxGeometry x="630" y="90" width="80" height="40" as="geometry" />
        </mxCell>
        <mxCell id="INU719RJ9msbYf8EdK45-91" style="edgeStyle=none;rounded=0;orthogonalLoop=1;jettySize=auto;html=1;endArrow=none;endFill=0;strokeWidth=3;" edge="1" parent="1" source="INU719RJ9msbYf8EdK45-28" target="INU719RJ9msbYf8EdK45-57">
          <mxGeometry relative="1" as="geometry" />
        </mxCell>
        <mxCell id="INU719RJ9msbYf8EdK45-101" style="edgeStyle=none;rounded=0;orthogonalLoop=1;jettySize=auto;html=1;endArrow=none;endFill=0;strokeWidth=3;" edge="1" parent="1" source="INU719RJ9msbYf8EdK45-28" target="INU719RJ9msbYf8EdK45-83">
          <mxGeometry relative="1" as="geometry" />
        </mxCell>
        <mxCell id="INU719RJ9msbYf8EdK45-103" style="edgeStyle=none;rounded=0;orthogonalLoop=1;jettySize=auto;html=1;endArrow=none;endFill=0;strokeWidth=3;" edge="1" parent="1" source="INU719RJ9msbYf8EdK45-28" target="INU719RJ9msbYf8EdK45-4">
          <mxGeometry relative="1" as="geometry" />
        </mxCell>
        <mxCell id="INU719RJ9msbYf8EdK45-28" value="Z1 - SPS" style="rounded=0;whiteSpace=wrap;html=1;" vertex="1" parent="1">
          <mxGeometry x="140" y="295" width="80" height="40" as="geometry" />
        </mxCell>
        <mxCell id="INU719RJ9msbYf8EdK45-92" style="edgeStyle=none;rounded=0;orthogonalLoop=1;jettySize=auto;html=1;endArrow=none;endFill=0;strokeWidth=3;" edge="1" parent="1" source="INU719RJ9msbYf8EdK45-57" target="INU719RJ9msbYf8EdK45-66">
          <mxGeometry relative="1" as="geometry" />
        </mxCell>
        <mxCell id="INU719RJ9msbYf8EdK45-57" value="S1" style="rounded=0;whiteSpace=wrap;html=1;" vertex="1" parent="1">
          <mxGeometry x="240" y="305" width="30" height="30" as="geometry" />
        </mxCell>
        <mxCell id="INU719RJ9msbYf8EdK45-93" style="edgeStyle=none;rounded=0;orthogonalLoop=1;jettySize=auto;html=1;entryX=0.5;entryY=1;entryDx=0;entryDy=0;endArrow=none;endFill=0;strokeWidth=3;" edge="1" parent="1" source="INU719RJ9msbYf8EdK45-66" target="INU719RJ9msbYf8EdK45-67">
          <mxGeometry relative="1" as="geometry" />
        </mxCell>
        <mxCell id="INU719RJ9msbYf8EdK45-66" value="S2" style="rounded=0;whiteSpace=wrap;html=1;" vertex="1" parent="1">
          <mxGeometry x="290" y="305" width="30" height="30" as="geometry" />
        </mxCell>
        <mxCell id="INU719RJ9msbYf8EdK45-94" style="edgeStyle=none;rounded=0;orthogonalLoop=1;jettySize=auto;html=1;endArrow=none;endFill=0;strokeWidth=3;" edge="1" parent="1" source="INU719RJ9msbYf8EdK45-67" target="INU719RJ9msbYf8EdK45-68">
          <mxGeometry relative="1" as="geometry" />
        </mxCell>
        <mxCell id="INU719RJ9msbYf8EdK45-67" value="S3" style="rounded=0;whiteSpace=wrap;html=1;" vertex="1" parent="1">
          <mxGeometry x="290" y="350" width="30" height="30" as="geometry" />
        </mxCell>
        <mxCell id="INU719RJ9msbYf8EdK45-95" style="edgeStyle=none;rounded=0;orthogonalLoop=1;jettySize=auto;html=1;endArrow=none;endFill=0;strokeWidth=3;" edge="1" parent="1" source="INU719RJ9msbYf8EdK45-68" target="INU719RJ9msbYf8EdK45-69">
          <mxGeometry relative="1" as="geometry" />
        </mxCell>
        <mxCell id="INU719RJ9msbYf8EdK45-68" value="S4" style="rounded=0;whiteSpace=wrap;html=1;" vertex="1" parent="1">
          <mxGeometry x="290" y="400" width="30" height="30" as="geometry" />
        </mxCell>
        <mxCell id="INU719RJ9msbYf8EdK45-96" style="edgeStyle=none;rounded=0;orthogonalLoop=1;jettySize=auto;html=1;endArrow=none;endFill=0;strokeWidth=3;" edge="1" parent="1" source="INU719RJ9msbYf8EdK45-69" target="INU719RJ9msbYf8EdK45-70">
          <mxGeometry relative="1" as="geometry" />
        </mxCell>
        <mxCell id="INU719RJ9msbYf8EdK45-69" value="S5" style="rounded=0;whiteSpace=wrap;html=1;" vertex="1" parent="1">
          <mxGeometry x="290" y="450" width="30" height="30" as="geometry" />
        </mxCell>
        <mxCell id="INU719RJ9msbYf8EdK45-97" style="edgeStyle=none;rounded=0;orthogonalLoop=1;jettySize=auto;html=1;endArrow=none;endFill=0;strokeWidth=3;" edge="1" parent="1" source="INU719RJ9msbYf8EdK45-70" target="INU719RJ9msbYf8EdK45-71">
          <mxGeometry relative="1" as="geometry" />
        </mxCell>
        <mxCell id="INU719RJ9msbYf8EdK45-70" value="S6" style="rounded=0;whiteSpace=wrap;html=1;" vertex="1" parent="1">
          <mxGeometry x="240" y="450" width="30" height="30" as="geometry" />
        </mxCell>
        <mxCell id="INU719RJ9msbYf8EdK45-98" style="edgeStyle=none;rounded=0;orthogonalLoop=1;jettySize=auto;html=1;endArrow=none;endFill=0;strokeWidth=3;" edge="1" parent="1" source="INU719RJ9msbYf8EdK45-71" target="INU719RJ9msbYf8EdK45-81">
          <mxGeometry relative="1" as="geometry" />
        </mxCell>
        <mxCell id="INU719RJ9msbYf8EdK45-71" value="S7" style="rounded=0;whiteSpace=wrap;html=1;" vertex="1" parent="1">
          <mxGeometry x="190" y="450" width="30" height="30" as="geometry" />
        </mxCell>
        <mxCell id="INU719RJ9msbYf8EdK45-99" style="edgeStyle=none;rounded=0;orthogonalLoop=1;jettySize=auto;html=1;endArrow=none;endFill=0;strokeWidth=3;" edge="1" parent="1" source="INU719RJ9msbYf8EdK45-81" target="INU719RJ9msbYf8EdK45-82">
          <mxGeometry relative="1" as="geometry" />
        </mxCell>
        <mxCell id="INU719RJ9msbYf8EdK45-81" value="A1" style="rounded=0;whiteSpace=wrap;html=1;" vertex="1" parent="1">
          <mxGeometry x="140" y="450" width="30" height="30" as="geometry" />
        </mxCell>
        <mxCell id="INU719RJ9msbYf8EdK45-100" style="edgeStyle=none;rounded=0;orthogonalLoop=1;jettySize=auto;html=1;endArrow=none;endFill=0;strokeWidth=3;" edge="1" parent="1" source="INU719RJ9msbYf8EdK45-82" target="INU719RJ9msbYf8EdK45-83">
          <mxGeometry relative="1" as="geometry" />
        </mxCell>
        <mxCell id="INU719RJ9msbYf8EdK45-82" value="A2" style="rounded=0;whiteSpace=wrap;html=1;" vertex="1" parent="1">
          <mxGeometry x="140" y="400" width="30" height="30" as="geometry" />
        </mxCell>
        <mxCell id="INU719RJ9msbYf8EdK45-83" value="A3" style="rounded=0;whiteSpace=wrap;html=1;" vertex="1" parent="1">
          <mxGeometry x="140" y="350" width="30" height="30" as="geometry" />
        </mxCell>
        <mxCell id="INU719RJ9msbYf8EdK45-105" style="edgeStyle=none;rounded=0;orthogonalLoop=1;jettySize=auto;html=1;endArrow=none;endFill=0;strokeWidth=3;" edge="1" parent="1" source="INU719RJ9msbYf8EdK45-104" target="INU719RJ9msbYf8EdK45-28">
          <mxGeometry relative="1" as="geometry" />
        </mxCell>
        <mxCell id="INU719RJ9msbYf8EdK45-104" value="" style="fontColor=#0066CC;verticalAlign=top;verticalLabelPosition=bottom;labelPosition=center;align=center;html=1;outlineConnect=0;fillColor=#CCCCCC;strokeColor=#6881B3;gradientColor=none;gradientDirection=north;strokeWidth=2;shape=mxgraph.networks.pc;" vertex="1" parent="1">
          <mxGeometry x="30" y="290" width="70" height="50" as="geometry" />
        </mxCell>
        <mxCell id="INU719RJ9msbYf8EdK45-110" style="edgeStyle=none;rounded=0;orthogonalLoop=1;jettySize=auto;html=1;endArrow=none;endFill=0;strokeWidth=3;" edge="1" parent="1" source="INU719RJ9msbYf8EdK45-107" target="INU719RJ9msbYf8EdK45-108">
          <mxGeometry relative="1" as="geometry" />
        </mxCell>
        <mxCell id="INU719RJ9msbYf8EdK45-112" style="edgeStyle=none;rounded=0;orthogonalLoop=1;jettySize=auto;html=1;endArrow=none;endFill=0;strokeWidth=3;" edge="1" parent="1" source="INU719RJ9msbYf8EdK45-107" target="INU719RJ9msbYf8EdK45-109">
          <mxGeometry relative="1" as="geometry" />
        </mxCell>
        <mxCell id="INU719RJ9msbYf8EdK45-107" value="W1" style="rounded=0;whiteSpace=wrap;html=1;" vertex="1" parent="1">
          <mxGeometry x="610" y="315" width="30" height="30" as="geometry" />
        </mxCell>
        <mxCell id="INU719RJ9msbYf8EdK45-111" style="edgeStyle=none;rounded=0;orthogonalLoop=1;jettySize=auto;html=1;endArrow=none;endFill=0;strokeWidth=3;" edge="1" parent="1" source="INU719RJ9msbYf8EdK45-108" target="INU719RJ9msbYf8EdK45-109">
          <mxGeometry relative="1" as="geometry" />
        </mxCell>
        <mxCell id="INU719RJ9msbYf8EdK45-108" value="&lt;div&gt;W2&lt;/div&gt;" style="rounded=0;whiteSpace=wrap;html=1;" vertex="1" parent="1">
          <mxGeometry x="640" y="365" width="30" height="30" as="geometry" />
        </mxCell>
        <mxCell id="INU719RJ9msbYf8EdK45-109" value="W3" style="rounded=0;whiteSpace=wrap;html=1;" vertex="1" parent="1">
          <mxGeometry x="580" y="365" width="30" height="30" as="geometry" />
        </mxCell>
        <mxCell id="INU719RJ9msbYf8EdK45-114" style="edgeStyle=none;rounded=0;orthogonalLoop=1;jettySize=auto;html=1;endArrow=none;endFill=0;strokeWidth=3;" edge="1" parent="1" source="INU719RJ9msbYf8EdK45-113" target="INU719RJ9msbYf8EdK45-107">
          <mxGeometry relative="1" as="geometry" />
        </mxCell>
        <mxCell id="INU719RJ9msbYf8EdK45-126" style="edgeStyle=none;rounded=0;orthogonalLoop=1;jettySize=auto;html=1;endArrow=none;endFill=0;strokeWidth=3;" edge="1" parent="1" source="INU719RJ9msbYf8EdK45-113" target="INU719RJ9msbYf8EdK45-4">
          <mxGeometry relative="1" as="geometry" />
        </mxCell>
        <mxCell id="INU719RJ9msbYf8EdK45-113" value="Z2 - SPS" style="rounded=0;whiteSpace=wrap;html=1;" vertex="1" parent="1">
          <mxGeometry x="420" y="305" width="80" height="40" as="geometry" />
        </mxCell>
        <mxCell id="INU719RJ9msbYf8EdK45-121" style="edgeStyle=none;rounded=0;orthogonalLoop=1;jettySize=auto;html=1;endArrow=none;endFill=0;strokeWidth=3;" edge="1" parent="1" source="INU719RJ9msbYf8EdK45-115" target="INU719RJ9msbYf8EdK45-113">
          <mxGeometry relative="1" as="geometry" />
        </mxCell>
        <mxCell id="INU719RJ9msbYf8EdK45-115" value="S8" style="rounded=0;whiteSpace=wrap;html=1;" vertex="1" parent="1">
          <mxGeometry x="360" y="380" width="30" height="30" as="geometry" />
        </mxCell>
        <mxCell id="INU719RJ9msbYf8EdK45-125" style="edgeStyle=none;rounded=0;orthogonalLoop=1;jettySize=auto;html=1;endArrow=none;endFill=0;strokeWidth=3;" edge="1" parent="1" source="INU719RJ9msbYf8EdK45-116" target="INU719RJ9msbYf8EdK45-113">
          <mxGeometry relative="1" as="geometry" />
        </mxCell>
        <mxCell id="INU719RJ9msbYf8EdK45-116" value="A5" style="rounded=0;whiteSpace=wrap;html=1;" vertex="1" parent="1">
          <mxGeometry x="520" y="380" width="30" height="30" as="geometry" />
        </mxCell>
        <mxCell id="INU719RJ9msbYf8EdK45-124" style="edgeStyle=none;rounded=0;orthogonalLoop=1;jettySize=auto;html=1;endArrow=none;endFill=0;strokeWidth=3;" edge="1" parent="1" source="INU719RJ9msbYf8EdK45-117" target="INU719RJ9msbYf8EdK45-113">
          <mxGeometry relative="1" as="geometry" />
        </mxCell>
        <mxCell id="INU719RJ9msbYf8EdK45-117" value="A4" style="rounded=0;whiteSpace=wrap;html=1;" vertex="1" parent="1">
          <mxGeometry x="480" y="380" width="30" height="30" as="geometry" />
        </mxCell>
        <mxCell id="INU719RJ9msbYf8EdK45-123" style="edgeStyle=none;rounded=0;orthogonalLoop=1;jettySize=auto;html=1;endArrow=none;endFill=0;strokeWidth=3;" edge="1" parent="1" source="INU719RJ9msbYf8EdK45-118" target="INU719RJ9msbYf8EdK45-113">
          <mxGeometry relative="1" as="geometry" />
        </mxCell>
        <mxCell id="INU719RJ9msbYf8EdK45-118" value="S10" style="rounded=0;whiteSpace=wrap;html=1;" vertex="1" parent="1">
          <mxGeometry x="440" y="380" width="30" height="30" as="geometry" />
        </mxCell>
        <mxCell id="INU719RJ9msbYf8EdK45-122" style="edgeStyle=none;rounded=0;orthogonalLoop=1;jettySize=auto;html=1;endArrow=none;endFill=0;strokeWidth=3;" edge="1" parent="1" source="INU719RJ9msbYf8EdK45-119" target="INU719RJ9msbYf8EdK45-113">
          <mxGeometry relative="1" as="geometry" />
        </mxCell>
        <mxCell id="INU719RJ9msbYf8EdK45-119" value="S9" style="rounded=0;whiteSpace=wrap;html=1;" vertex="1" parent="1">
          <mxGeometry x="400" y="380" width="30" height="30" as="geometry" />
        </mxCell>
      </root>
    </mxGraphModel>
  </diagram>
</mxfile>
